<?xml version="1.0" encoding="utf-8"?>
<!-- Generator: Adobe Illustrator 21.0.0, SVG Export Plug-In . SVG Version: 6.00 Build 0)  -->
<svg version="1.1" id="Layer_1" xmlns="http://www.w3.org/2000/svg" xmlns:xlink="http://www.w3.org/1999/xlink" x="0px" y="0px"
	 viewBox="0 0 2000 2000" style="enable-background:new 0 0 2000 2000;" xml:space="preserve">
<style type="text/css">
	.st0{fill:#333333;}
	.st1{fill:#6D8A9E;}
	.st2{fill:#ABCCE4;}
</style>
<g>
	<path class="st0" d="M502.5,1152.7c-4,0-7.7-0.3-11.1-0.5v25.2c0,26.5,2.1,43.2,7.7,62.3h-42.1c5.6-19.1,7.7-35.8,7.7-62.3v-92.5
		c0-26.5-2.1-43.2-7.7-62.3h40.5c54.6,0,84,28.4,84,64.7C581.5,1127.2,550.5,1152.7,502.5,1152.7z M492.5,1040
		c-0.8,5-1.1,14.6-1.1,28.4v72.1c38.4-3.4,61.2-24.9,61.2-52.7C552.6,1061.2,529.8,1041.1,492.5,1040z"/>
	<path class="st0" d="M717.5,1242.2c-65.2,1.1-111-54.1-110-111.6c-1.1-59.9,50.1-111.8,111-110.8c60.4-1.1,112.6,45.6,111.6,110.2
		C831.4,1194,779.7,1243.3,717.5,1242.2z M722.8,1221.3c44.8,0.8,77.9-38.2,77.4-84.5c1.1-50.9-39.8-97-87.2-95.9
		c-40.5-0.5-76.3,34.2-75.5,84.3C636.6,1175.5,672.9,1222.4,722.8,1221.3z"/>
	<path class="st0" d="M871.2,1084.8c0-26.2-2.7-42.9-9.3-62.3c9.8-1.1,20.1-1.6,31-1.6c90.1,0,140.2,43.2,140.2,108.4
		c1.1,68.4-55.9,110.8-130.1,110.2h-39.5c5.6-19.1,7.7-35.8,7.7-62.3V1084.8z M899.5,1039.5c-1.1,10.3-1.6,23.3-1.6,39v100.4
		c0,17.2,0.8,31.3,2.1,42.1c31.3-1.6,56.2-9.8,74.5-24.9c18.3-15.1,27.6-36.3,27.6-64.1C1002.1,1078.5,962.3,1042.2,899.5,1039.5z"
		/>
	<path class="st0" d="M1077.9,1084.8c0-26.5-2.1-43.2-7.7-62.3h42.1c-5.6,19.1-7.7,35.8-7.7,62.3v92.5c0,26.5,2.1,43.2,7.7,62.3
		h-42.1c5.6-19.1,7.7-35.8,7.7-62.3V1084.8z"/>
	<path class="st0" d="M1366.4,1239.6h-46.9c0.5-1.9,0.8-4.2,0.8-7.2c0-9.5-2.6-20.1-10.9-37.9l-12.7-29.2H1210l-14.3,29.9
		c-7.4,15.9-11.1,28.4-11.1,37.1c0,2.4,0.3,4.8,0.5,7.2H1139v-0.8c9.8-12.5,19.9-29.2,30.5-50.1l86.4-171.5h0.8l80.6,172.3
		c5,10.6,9.5,19.6,13.8,26.8s9.3,14.6,15.4,22.5V1239.6z M1220.6,1143.1h66.3l-31.8-71.8L1220.6,1143.1z"/>
	<path class="st0" d="M1402.8,1043.2c-25.7,0-49.8,4.8-68.1,13l-0.5-0.5l9.8-33.1h157.4l-13,30.7c-17-7.2-33.9-10.1-58.6-10.1v134.1
		c0,26.2,2.1,42.9,7.4,62.3h-41.9c5.6-18.8,7.4-35.5,7.4-62.3V1043.2z"/>
	<path class="st0" d="M1671.2,1239.6h-21.5c-7.7-2.9-18.3-11.7-31.5-26c-18.8-20.1-39-44.8-61-73.9v37.6c0,26.5,2.1,43.2,7.7,62.3
		h-42.1c5.6-19.1,7.7-35.8,7.7-62.3v-92.5c0-26.5-2.1-43.2-7.7-62.3h39.5c53.3,0,82.4,26.8,82.4,61c0,26.2-15.9,46.1-47.7,59.9
		c9.8,15.6,20.4,30.2,31.3,44.3s25.2,31,42.9,50.9V1239.6z M1557.3,1137c38.4-7.7,58.6-26,58.6-51.1c0-27.8-25.4-46.1-58.6-46.1
		V1137z"/>
	<path class="st0" d="M1830,1022.5v0.8c-5.8,6.6-12.7,17.2-20.9,31.5l-49.8,87.7v34.7c0,26.5,2.1,43.2,7.7,62.3h-42.1
		c5.6-19.1,7.7-35.8,7.7-62.3v-33.4l-49.8-86.4c-10.6-18.3-17-27-24.4-34.2v-0.8h44.3c-0.3,1.9-0.5,3.4-0.5,5.3
		c0,7.2,2.9,15.9,8.7,26.2l35.8,62.8l35.8-63.6c6.1-10.9,8.2-18.6,8.2-26.8c0-1.9,0-3.2-0.3-4H1830z"/>
</g>
<g>
	<path class="st0" d="M460.2,972.1h0.6c4.9,5.3,9.1,9,12.7,11c3.7,2,7.9,3,12.6,3c5.7,0,10.6-1.7,14.4-5.3c3.9-3.6,5.9-8.1,5.9-13.4
		c0-8.9-4.9-14.4-23.4-24.4c-8.7-4.7-14.7-9.6-18.3-14.3c-3.4-4.9-5.1-10.9-5.1-17.9c-0.3-16.6,14.7-33.3,35-32.9
		c7.9,0,15.1,1.7,21.9,5.1v15.6l-0.4,0.1c-7.6-6.4-13.9-8.7-21.4-8.7c-12.3,0-20.3,8.4-20.3,17.9c0,4.7,1.6,8.9,4.9,12.4
		c3.3,3.6,9,7.7,17.4,12.3c19,10.4,25.6,17.1,26,32.3c0,20.7-17.1,32.9-38.1,32.9c-9,0-17.1-1.6-24.1-4.6V972.1z"/>
	<path class="st0" d="M619.6,890.6c-13.9,0-26.9,2.6-36.7,7l-0.3-0.3l5.3-17.9h84.8l-7,16.6c-9.1-3.9-18.3-5.4-31.6-5.4v72.3
		c0,14.1,1.1,23.1,4,33.6h-22.6c3-10.1,4-19.1,4-33.6V890.6z"/>
	<path class="st0" d="M818.6,996.4H807c-4.1-1.6-9.9-6.3-17-14c-10.1-10.9-21-24.1-32.9-39.8v20.3c0,14.3,1.1,23.3,4.1,33.6h-22.7
		c3-10.3,4.1-19.3,4.1-33.6V913c0-14.3-1.1-23.3-4.1-33.6h21.3c28.7,0,44.4,14.4,44.4,32.9c0,14.1-8.6,24.9-25.7,32.3
		c5.3,8.4,11,16.3,16.9,23.9c5.9,7.6,13.6,16.7,23.1,27.4V996.4z M757.2,941.1c20.7-4.1,31.6-14,31.6-27.6c0-15-13.7-24.9-31.6-24.9
		V941.1z"/>
	<path class="st0" d="M887.9,913c0-14.3-1.1-23.3-4.1-33.6h22.7c-3,10.3-4.1,19.3-4.1,33.6v49.8c0,14.3,1.1,23.3,4.1,33.6h-22.7
		c3-10.3,4.1-19.3,4.1-33.6V913z"/>
	<path class="st0" d="M988,913c0-14.1-1.4-23.1-5-33.6c5.3-0.6,10.9-0.9,16.7-0.9c48.6,0,75.6,23.3,75.6,58.4
		c0.6,36.9-30.1,59.7-70.1,59.4h-21.3c3-10.3,4.1-19.3,4.1-33.6V913z M1003.3,888.6c-0.6,5.6-0.9,12.6-0.9,21v54.1
		c0,9.3,0.4,16.9,1.1,22.7c16.9-0.9,30.3-5.3,40.1-13.4c9.9-8.1,14.9-19.6,14.9-34.6C1058.6,909.6,1037.2,890,1003.3,888.6z"/>
	<path class="st0" d="M1153.7,913c0-14.3-1.1-23.3-4.1-33.6h61.8l-7.4,16.3c-9.9-4-21.9-6-35.9-6V932h38.6l-8.9,14.9
		c-7.9-2.4-17.9-3.9-29.7-4.3v43.6c19.4,0,33.9-2.3,48.7-7l0.3,0.3l-7.3,17h-60.3c3-10.3,4.1-19.3,4.1-33.6V913z"/>
</g>
<g>
	<path class="st0" d="M180.3,996.1c11,26.8,28.5,49.2,48.3,69.9c7.1,7.5,14.4,14.8,21.7,22.1c-1.6,8-28.7,84.7-27.4,117.6
		c1.3,33.1,31.3,63.2,62.4,64.4c38.4,1.5,65.1-26.9,61.7-66.1c-2.9-33.8-17.5-62.7-41.2-86.3c-20.5-20.4-42.8-38.9-64.3-58.4
		c-15.1-13.7-28.4-29-38.6-46.9c-33.2-58.7,1-119.9,50.2-138.5c42.2-15.9,82.1-10.2,118.3,16.3c25.4,18.6,33.6,49.7,22,76.6
		c-6.5,15-17.7,25-32.9,31c-16.3,6.4-32.7,12.6-48.6,19.9c-13.3,6.1-23.2,16.1-27.5,30.9c15.1-19.6,36.9-27.7,59.3-35
		c9.1-3,18.4-5.9,27.1-10.1c55.1-26.2,47.5-91.9,21-119.4c-38.2-39.5-113.8-52.8-162.9-28.5C172.6,883.6,161.9,951.4,180.3,996.1z"
		/>
	<path class="st1" d="M269.2,1059.2c-3.9-27.9,8.6-48.5,29.2-64.8c8.3-6.6,17.7-11.8,26.8-17.3c6.3-3.8,13.2-6.6,19.3-10.7
		c23-15.1,25.1-45.2,4.6-63.8c-14.9-13.5-32.8-17.8-52.2-16.5c-31.8,2.2-57.9,14.8-70.9,45.4c-12,28.3-9.8,57.1,5.2,83.7
		c8,14.2,19.5,26.4,29.6,39.4c1.7,2.2,4.5,3.7,6.7,5.5C268.1,1059.8,268.6,1059.5,269.2,1059.2z"/>
	
		<ellipse transform="matrix(0.5169 -0.8561 0.8561 0.5169 -511.9517 745.467)" class="st2" cx="404.5" cy="826.3" rx="43.8" ry="26.1"/>
	
		<ellipse transform="matrix(0.2705 -0.9627 0.9627 0.2705 -520.6307 917.0292)" class="st2" cx="344.8" cy="802" rx="38.6" ry="23"/>
	
		<ellipse transform="matrix(0.9995 -3.182384e-02 3.182384e-02 0.9995 -25.3126 9.5687)" class="st2" cx="287.9" cy="800" rx="20.6" ry="34.6"/>
	
		<ellipse transform="matrix(0.9038 -0.4281 0.4281 0.9038 -323.8083 180.0325)" class="st2" cx="238.4" cy="810.1" rx="17.2" ry="28.9"/>
	
		<ellipse transform="matrix(0.7371 -0.6758 0.6758 0.7371 -510.7819 359.585)" class="st2" cx="206.8" cy="836.3" rx="12.1" ry="20.3"/>
</g>
</svg>
